PathFileType	4	(X/Y/Z)	T:\Spectrum_Optical_Capture\Spectrum_Demo_10_05_01_TRUECOMBAT\07_Smooth_Trc\TC_Jog_1.trc
DataRate	CameraRate	NumFrames	NumMarkers	Units	OrigDataRate	OrigDataStartFrame	OrigNumFrames
60.0	60.0	       4	46	mm	60.0	1	       504
Frame#	Time	HeadTop			ForeHead			LFrontHead			RFrontHead			TopSpine			Sternum			Scapula			LFShoulder			LShoulder			LBicep			LOuterElbow			LHand			LWristPinky			LWristThumb			RFShoulder			RShoulder			RBicep			ROuterElbow			RHand			RWristPinky			RWristThumb			MiddleBack			LowerBack			Root			Pelvis			LBackWaist			RBackWaist			LFrontWaist			RFrontWaist			Bellymarker			LThigh			LOuterKnee			LAnkle			LHeel			LOuterMeta			LToe			RThigh			ROuterKnee			RAnkle			RHeel			ROuterMeta			RToe			Floor1			Floor2			Floor3			Floor4			
		X1	Y1	Z1	X2	Y2	Z2	X3	Y3	Z3	X4	Y4	Z4	X5	Y5	Z5	X6	Y6	Z6	X7	Y7	Z7	X8	Y8	Z8	X9	Y9	Z9	X10	Y10	Z10	X11	Y11	Z11	X12	Y12	Z12	X13	Y13	Z13	X14	Y14	Z14	X15	Y15	Z15	X16	Y16	Z16	X17	Y17	Z17	X18	Y18	Z18	X19	Y19	Z19	X20	Y20	Z20	X21	Y21	Z21	X22	Y22	Z22	X23	Y23	Z23	X24	Y24	Z24	X25	Y25	Z25	X26	Y26	Z26	X27	Y27	Z27	X28	Y28	Z28	X29	Y29	Z29	X30	Y30	Z30	X31	Y31	Z31	X32	Y32	Z32	X33	Y33	Z33	X34	Y34	Z34	X35	Y35	Z35	X36	Y36	Z36	X37	Y37	Z37	X38	Y38	Z38	X39	Y39	Z39	X40	Y40	Z40	X41	Y41	Z41	X42	Y42	Z42	X43	Y43	Z43	X44	Y44	Z44	X45	Y45	Z45	X46	Y46	Z46	

1	0.000	-3053.22607	1668.25720	-3534.43091	-2985.47388	1545.96631	-3434.44189	-2954.11328	1538.13281	-3549.35571	-3100.35498	1548.35815	-3437.73584	-3157.34619	1354.34302	-3649.92163	-3001.31104	1175.29517	-3449.89600	-3269.49609	1229.56909	-3585.98999	-2963.41187	1289.99255	-3532.04053	-2987.29736	1391.31262	-3681.81030	-2846.99268	1356.67505	-3790.59448	-2802.39844	1265.28149	-3867.06519	-2597.15845	1362.79626	-3946.54761	-2538.70996	1326.17957	-4023.88354	-2453.87866	1379.11157	-3995.88184	-3090.47900	1288.54858	-3437.92847	-3218.16650	1387.25659	-3493.02026	-3362.41870	1338.54163	-3440.41162	-3456.51709	1290.45203	-3336.93701	-3547.30029	1385.59668	-3137.92603	-3633.16528	1361.29932	-3089.63940	-3623.68823	1398.60132	-3001.69434	-3168.27490	1265.80066	-3664.23218	-3163.07544	1143.09656	-3657.99609	-3156.08936	1034.13232	-3645.44824	-3013.18384	1065.90234	-3704.36548	-3026.74927	944.71631	-3701.45117	-3247.41040	950.92468	-3524.48560	-2924.13892	949.05115	-3599.48242	-3182.16431	956.45697	-3397.46436	-2984.66040	978.49866	-3410.25488	-2952.22021	683.76013	-3698.75854	-2962.45923	515.15790	-3692.84912	-2986.25488	116.40627	-3751.05615	-3068.76587	43.07095	-3755.86206	-2920.48608	19.40779	-3711.30762	-2886.56226	26.13765	-3585.79883	-3214.30786	685.45349	-3384.97363	-3248.32031	532.12109	-3455.50391	-3305.25659	136.20322	-3511.24219	-3295.39746	45.77831	-3610.16138	-3295.91821	19.36731	-3450.83618	-3181.61987	32.24402	-3394.52637	4200.87207	32.81202	-4241.16699	-3732.80811	-12.11708	-4191.05029	-3783.00293	-15.58714	4949.53809	4162.59131	20.91077	4904.64600	
2	0.017	-3052.79858	1668.15369	-3534.49341	-2985.41235	1545.98743	-3434.34692	-2953.91748	1538.28748	-3549.61279	-3100.04297	1549.26160	-3438.67188	-3157.25903	1354.29822	-3650.07251	-3001.19409	1175.00854	-3449.49341	-3269.38623	1229.74316	-3586.29639	-2963.31665	1289.83362	-3531.87744	-2987.09497	1391.46240	-3681.84302	-2846.79175	1356.76953	-3790.59668	-2802.00293	1265.02576	-3866.77808	-2597.02881	1362.57813	-3946.39893	-2538.20923	1325.95313	-4023.69531	-2453.65308	1378.88965	-3995.74854	-3090.32373	1288.52551	-3437.72876	-3217.93408	1387.30237	-3492.95874	-3362.19702	1338.45349	-3440.60742	-3456.67285	1290.51733	-3337.26563	-3547.30322	1385.57483	-3138.06396	-3633.20874	1361.15210	-3089.84448	-3623.79932	1398.52734	-3001.81274	-3167.87134	1265.77344	-3664.17749	-3163.01904	1143.11523	-3658.01538	-3155.85498	1033.94983	-3645.34546	-3013.13647	1065.88074	-3704.37549	-3026.48486	944.76147	-3701.41821	-3247.25000	950.95392	-3524.64917	-2924.01904	949.06409	-3599.22339	-3182.22998	956.41687	-3397.52832	-2984.24438	978.27289	-3409.95435	-2952.13037	683.78900	-3698.69849	-2962.43384	515.05005	-3692.77930	-2986.09253	116.73962	-3750.81226	-3068.76904	43.05833	-3755.85669	-2920.54517	19.17465	-3711.32349	-2886.62207	26.32359	-3585.85156	-3213.95142	685.43481	-3384.72754	-3248.15259	532.09186	-3455.59448	-3305.43115	136.08188	-3510.98633	-3295.38184	45.80810	-3610.17383	-3295.68140	19.33434	-3450.74438	-3181.14429	32.22708	-3394.68530	4200.92578	32.91389	-4241.13086	-3732.81250	-12.09879	-4191.05713	-3783.33228	-15.51447	4949.69189	4162.55127	21.19097	4904.99756	
3	0.033	-3052.44116	1668.10999	-3534.56152	-2985.31226	1545.98718	-3434.25293	-2953.73242	1538.37671	-3549.71997	-3099.72852	1549.83459	-3439.25708	-3157.16895	1354.26282	-3650.20068	-3001.23193	1174.81653	-3449.29614	-3269.23267	1229.88721	-3586.52539	-2963.19727	1289.70862	-3531.71216	-2986.95288	1391.60022	-3681.83081	-2846.56055	1356.81653	-3790.57593	-2801.67480	1264.79614	-3866.54688	-2596.86914	1362.33154	-3946.19165	-2537.79858	1325.71460	-4023.48267	-2453.43311	1378.66589	-3995.57544	-3090.28760	1288.49817	-3437.67090	-3217.68701	1387.36633	-3492.87939	-3362.01123	1338.39331	-3440.79419	-3456.79443	1290.59229	-3337.61865	-3547.32544	1385.54150	-3138.21484	-3633.24072	1361.01038	-3090.06665	-3623.93408	1398.45740	-3001.94043	-3167.50830	1265.77344	-3664.15234	-3162.95117	1143.12219	-3658.03247	-3155.66528	1033.67517	-3645.08105	-3013.06567	1065.86218	-3704.38818	-3026.23755	944.81097	-3701.35962	-3247.07202	950.96100	-3524.79492	-2923.94409	949.08124	-3599.01611	-3182.27954	956.38867	-3397.57935	-2983.94238	978.09698	-3409.78198	-2952.07080	683.80981	-3698.62280	-2962.39307	514.96936	-3692.72534	-2985.91431	116.97552	-3750.62378	-3068.75195	43.04558	-3755.85449	-2920.58984	19.04213	-3711.36084	-2886.67310	26.44503	-3585.89966	-3213.66675	685.41022	-3384.54199	-3248.07861	532.09320	-3455.83838	-3305.49268	136.04582	-3510.87012	-3295.37085	45.82293	-3610.17993	-3295.40820	19.20281	-3450.67188	-3180.91382	32.19741	-3394.82324	4200.94238	32.95777	-4241.10596	-3732.82837	-12.08917	-4191.07764	-3783.52075	-15.49310	4949.75488	4162.50537	21.37981	4905.36914	
4	0.050	-3052.16333	1668.14270	-3534.62207	-2985.16138	1545.95435	-3434.17456	-2953.55640	1538.38623	-3549.63940	-3099.40698	1549.97498	-3439.38965	-3157.04980	1354.23962	-3650.30713	-3001.30371	1174.75159	-3449.28687	-3269.01172	1229.97437	-3586.63379	-2963.08472	1289.62354	-3531.57422	-2986.86597	1391.71252	-3681.76611	-2846.26123	1356.80457	-3790.52466	-2801.43579	1264.59851	-3866.38208	-2596.63599	1362.01990	-3945.92139	-2537.48169	1325.43884	-4023.23828	-2453.20752	1378.45422	-3995.36841	-3090.34229	1288.44897	-3437.74072	-3217.42310	1387.43652	-3492.77759	-3361.86792	1338.37317	-3440.97900	-3456.86084	1290.66809	-3338.00000	-3547.37695	1385.48999	-3138.38428	-3633.26465	1360.88635	-3090.31885	-3624.09839	1398.39917	-3002.08032	-3167.20361	1265.81067	-3664.15796	-3162.85938	1143.11267	-3658.04858	-3155.54468	1033.27429	-3644.59204	-3012.95801	1065.84644	-3704.40356	-3026.02319	944.86572	-3701.25562	-3246.87427	950.93060	-3524.90210	-2923.91528	949.10028	-3598.91455	-3182.31006	956.37476	-3397.61670	-2983.78735	977.99323	-3409.74634	-2952.03906	683.81519	-3698.53760	-2962.34058	514.94629	-3692.72363	-2985.71924	117.08950	-3750.51709	-3068.72119	43.03280	-3755.85474	-2920.61914	19.05584	-3711.43604	-2886.70068	26.47924	-3585.93750	-3213.50171	685.38708	-3384.47290	-3248.08887	532.13965	-3456.17236	-3305.42749	136.09996	-3510.88721	-3295.36597	45.81760	-3610.17798	-3295.13159	18.99529	-3450.63525	-3180.97925	32.13811	-3394.93433	4200.89648	32.91267	-4241.09326	-3732.85962	-12.09752	-4191.11865	-3783.54199	-15.53789	4949.71582	4162.47217	21.47523	4905.69727	
